<svg id="visual" viewBox="0 0 960 300" width="960" height="300" xmlns="http://www.w3.org/2000/svg" xmlns:xlink="http://www.w3.org/1999/xlink" version="1.1"><rect x="0" y="0" width="960" height="300" fill="#f5f5f5"></rect><path d="M0 204L22.8 199.5C45.7 195 91.3 186 137 181.5C182.7 177 228.3 177 274 183.2C319.7 189.3 365.3 201.7 411.2 205.5C457 209.3 503 204.7 548.8 198.8C594.7 193 640.3 186 686 182.5C731.7 179 777.3 179 823 183.3C868.7 187.7 914.3 196.3 937.2 200.7L960 205L960 301L937.2 301C914.3 301 868.7 301 823 301C777.3 301 731.7 301 686 301C640.3 301 594.7 301 548.8 301C503 301 457 301 411.2 301C365.3 301 319.7 301 274 301C228.3 301 182.7 301 137 301C91.3 301 45.7 301 22.8 301L0 301Z" fill="#74cd77"></path><path d="M0 239L22.8 235C45.7 231 91.3 223 137 217.5C182.7 212 228.3 209 274 209C319.7 209 365.3 212 411.2 213.7C457 215.3 503 215.7 548.8 219.5C594.7 223.3 640.3 230.7 686 233.5C731.7 236.3 777.3 234.7 823 233.7C868.7 232.7 914.3 232.3 937.2 232.2L960 232L960 301L937.2 301C914.3 301 868.7 301 823 301C777.3 301 731.7 301 686 301C640.3 301 594.7 301 548.8 301C503 301 457 301 411.2 301C365.3 301 319.7 301 274 301C228.3 301 182.7 301 137 301C91.3 301 45.7 301 22.8 301L0 301Z" fill="#1ec9ab"></path><path d="M0 226L22.8 230C45.7 234 91.3 242 137 244.7C182.7 247.3 228.3 244.7 274 240.2C319.7 235.7 365.3 229.3 411.2 229.7C457 230 503 237 548.8 242.2C594.7 247.3 640.3 250.7 686 249.3C731.7 248 777.3 242 823 237C868.7 232 914.3 228 937.2 226L960 224L960 301L937.2 301C914.3 301 868.7 301 823 301C777.3 301 731.7 301 686 301C640.3 301 594.7 301 548.8 301C503 301 457 301 411.2 301C365.3 301 319.7 301 274 301C228.3 301 182.7 301 137 301C91.3 301 45.7 301 22.8 301L0 301Z" fill="#00bfcf"></path><path d="M0 250L22.8 253C45.7 256 91.3 262 137 261.2C182.7 260.3 228.3 252.7 274 251.2C319.7 249.7 365.3 254.3 411.2 257.5C457 260.7 503 262.3 548.8 263.5C594.7 264.7 640.3 265.3 686 263.8C731.7 262.3 777.3 258.7 823 256.5C868.7 254.3 914.3 253.7 937.2 253.3L960 253L960 301L937.2 301C914.3 301 868.7 301 823 301C777.3 301 731.7 301 686 301C640.3 301 594.7 301 548.8 301C503 301 457 301 411.2 301C365.3 301 319.7 301 274 301C228.3 301 182.7 301 137 301C91.3 301 45.7 301 22.8 301L0 301Z" fill="#00b0e3"></path><path d="M0 270L22.8 271C45.7 272 91.3 274 137 276.5C182.7 279 228.3 282 274 281.3C319.7 280.7 365.3 276.3 411.2 275.2C457 274 503 276 548.8 277.3C594.7 278.7 640.3 279.3 686 276.8C731.7 274.3 777.3 268.7 823 266.5C868.7 264.3 914.3 265.7 937.2 266.3L960 267L960 301L937.2 301C914.3 301 868.7 301 823 301C777.3 301 731.7 301 686 301C640.3 301 594.7 301 548.8 301C503 301 457 301 411.2 301C365.3 301 319.7 301 274 301C228.3 301 182.7 301 137 301C91.3 301 45.7 301 22.8 301L0 301Z" fill="#4c9be9"></path></svg>
